<?xml version="1.0" encoding="utf-8"?>
<svg version="1.1" viewBox="0 0 960 960" xmlns="http://www.w3.org/2000/svg">
<path d="M695.1,642.8c34.3-45.3,54.7-101.6,54.7-162.8s-20.4-117.6-54.7-162.8l26.9-100.9l-102.2,32.9c-40.8-24.7-88.6-39-139.8-39
	c-50.5,0-97.8,13.9-138.2,38.1l-99.3-32l25.7,96.7c-36.3,45.9-58,103.9-58,167s21.7,121.1,58,167l-25.7,96.7l99.3-32
	c40.4,24.2,87.7,38.1,138.2,38.1c51.2,0,99-14.2,139.8-39l102.2,32.9L695.1,642.8z M310.1,480c0-93.8,76.1-169.9,169.9-169.9
	S649.9,386.2,649.9,480S573.8,649.9,480,649.9S310.1,573.8,310.1,480z"/>
<g>
	<path d="M556.1,174.1L480,35l-75.7,138.4c23.9-5.8,48.7-8.9,74.4-8.9C505.4,164.5,531.3,167.9,556.1,174.1z"/>
	<path d="M173.4,404.3L35,480l139.1,76.1c-6.3-24.8-9.6-50.7-9.6-77.4C164.5,453,167.6,428.2,173.4,404.3z"/>
	<path d="M782.8,557.8L925,480l-141.4-77.4c6.1,24.4,9.3,49.8,9.3,76C792.8,506,789.3,532.5,782.8,557.8z"/>
	<path d="M402.6,783.5L480,925l77.8-142.2c-25.3,6.6-51.8,10.1-79.1,10.1C452.5,792.8,427,789.6,402.6,783.5z"/>
</g>
</svg>
