<?xml version="1.0" encoding="UTF-8"?>
<svg id="Layer_1" xmlns="http://www.w3.org/2000/svg" version="1.1" viewBox="0 0 228.9 228.9">
  <!-- Generator: Adobe Illustrator 30.0.0, SVG Export Plug-In . SVG Version: 2.1.1 Build 123)  -->
  <defs>
    <style>
      .st0 {
        fill: #000000;
      }

      .st1 {
        fill: #000000;
      }

      .st2 {
        fill: #000000;
      }

      .st3 {
        fill: #000000;
      }

      .st4 {
        fill: #000000;
      }

      .st5 {
        fill: #000000;
      }

      .st6 {
        fill: #000000;
      }

      .st7 {
        fill: #000000;
      }

      .st8 {
        fill: #000000;
      }

      .st9 {
        fill: #000000;
      }

      .st10 {
        fill: #000000;
      }

      .st11 {
        fill: #000000;
      }

      .st12 {
        fill: #000000;
      }

      .st13 {
        fill: #000000;
      }

      .st14 {
        fill: #000000;
      }

      .st15 {
        fill: #000000;
      }

      .st16 {
        fill: #000000;
      }

      .st17 {
        fill: #000000;
      }

      .st18 {
        fill: #000000;
      }
    </style>
  </defs>
  <path class="st18" d="M143.8,112.4c1,0,1.9.2,2.9.4,0,.3.1.6,0,.9-.2.7-.5,1.4-.7,2.1-.5,1.3-1.3,2.2-2.6,2.8-3.8,1.8-7.4,3.9-10.8,6.4-3.9,3-7.3,6.5-10.5,10.2-.2.2-.4.5-.6.7,0,.1,0,.1-.3.2-1.2-3.2-2.3-6.4-4.3-9.2s-4.4-5.1-7.2-7.2c.2,0,.3-.2.4-.3,4.6-2.3,9.2-4.5,14-6.1,1.4-.5,2.8-.8,4.3-1,.6,0,1.1,0,1.7-.2.4,0,.8,0,1.2,0h5.3c.6,0,1.1,0,1.7,0,.9,0,1.7,0,2.6.2.3,0,.7,0,1,0,.8-.1,1.3-.1,1.9,0h0Z"/>
  <path class="st15" d="M130.5,109.5h6.3q0,0,.1.2h-6.4q-.1,0,0-.2Z"/>
  <path class="st11" d="M30.7,133.6h6.2c0,.1-.3.1-.4.1h-5.3c-.2,0-.4,0-.5-.1h0Z"/>
  <path class="st1" d="M136.8,112h-5.3c.2,0,.5-.2.7-.2h3.9c.2,0,.5,0,.7.2Z"/>
  <path class="st8" d="M170.7,46.4c-.6,0-1.1.2-1.6.2h-2s0,0,.1-.2h3.5Z"/>
  <path class="st17" d="M158.4,46.8c-.9.2-1.9.4-2.8,0h2.8Z"/>
  <path class="st10" d="M155,102c-.1,0-.2,0-.5-.3,1,0,1.9-.2,2.7,0-.8.1-1.5.1-2.2.2h0Z"/>
  <path class="st12" d="M141.1,112.2c-.9,0-1.7,0-2.6-.2.8,0,1.7,0,2.6.2Z"/>
  <path class="st7" d="M163.7,46.6c-.8,0-1.6,0-2.4.2,0,0,0,0,.1-.2h2.3Z"/>
  <path class="st6" d="M139.5,109.7c.7,0,1.4,0,2.2.2-.7,0-1.4,0-2.2-.2Z"/>
  <path class="st10" d="M67.3,192.3h1.9c-.6.3-1.2.4-1.9,0Z"/>
  <path class="st1" d="M167.1,46.4s0,0-.1.2h-1.9c.7-.1,1.4-.2,2-.2Z"/>
  <path class="st6" d="M142.7,109.9c.6,0,1.1,0,1.7.2-.5,0-1.1,0-1.7-.2Z"/>
  <path class="st17" d="M130.2,112c-.6,0-1.1,0-1.7.2.6,0,1.2,0,1.7-.2Z"/>
  <path class="st12" d="M143.8,112.4c-.6,0-1.1,0-1.7-.2.6,0,1.1.2,1.7.2Z"/>
  <path class="st13" d="M161.4,46.6s0,0-.1.2h-1.5c.6,0,1.1-.2,1.6-.2Z"/>
  <path class="st6" d="M49.7,133c.5-.1,1-.1,1.5-.2-.5,0-1,0-1.5.2Z"/>
  <path class="st16" d="M136.8,109.7q0,0-.1-.2c.5,0,1,0,1.5,0-.4,0-.9,0-1.4,0Z"/>
  <path class="st4" d="M149.5,110.5c.4,0,.9,0,1.3.2-.4,0-.9,0-1.3-.2Z"/>
  <path class="st4" d="M52,132.7c.4-.1.9-.1,1.3-.2-.4.1-.8.2-1.3.2Z"/>
  <path class="st16" d="M130.5,109.5q0,0-.1.2h-1c.3,0,.7-.2,1.1-.2h0Z"/>
  <path class="st3" d="M73.9,159.5h-.7c.2-.3.5-.3.7,0Z"/>
  <path class="st2" d="M126,47.9c-.2,0-.3.3-.4,0,.2,0,.3,0,.4,0Z"/>
  <path class="st14" d="M89.2,150.6c0,.1-.2.1-.4.2.1-.1.2-.1.4-.2Z"/>
  <path class="st5" d="M57.8,166.3q0,.1,0,.1h0Z"/>
  <path class="st12" d="M106.1,88.3h3.6c-1.2.3-2.4.4-3.6,0Z"/>
  <path class="st9" d="M127.1,69.2h-2.3c.7-.3,1.5-.3,2.3,0Z"/>
  <path class="st6" d="M123.5,69.2c-.6,0-1.2,0-1.7.2.5,0,1.1,0,1.7-.2Z"/>
  <g>
    <path class="st0" d="M40.2,70.3c3.8,1.3,8.3.4,11.2-2.4,3.2-3.1,2.9-7.8,3.3-11.9v-4.8c2.5-4.7,5.6-9.2,10-12.3,4.6-3.3,12.4-7.3,17.9-8.7.9-.2,1.4-.3,2.3-.1-.2.4-.3.7-.5,1.1-.6.9-2.7,2.3-3.6,3.1-3.5,3.3-7.7,8.2-9.3,12.7-1.4,4-1.5,8.2-1.5,12.4-5.4,4.1-9.3,9.8-11.7,16.1-1.9,5.1-3.4,12.5-1.7,17.8s7.6,9.6,13.4,11.2c1.7-10.4,7.5-19.7,14.2-27.5h.2c12.7,8.2,26.2,21.7,26.9,37.8v69.6c-13.7-4.9-29.1-12.5-35.8-26.2-2.4-4.8-3.8-10-4.9-15.2-2.1-2.1-4.8-3.9-7.7-4.8-.2,3.4-.2,6.8.5,10.2.9,4.1,2.9,8,5.1,11.6-1.4,8.3.4,17.6,7.5,22.8s9.9,4.6,15.2,5.1c1.5,4.6,3.3,9,6.4,12.6s2.5,2.4,3.8,3.7c.1.1.2.2.2.4-12.7,1.2-27.3-2-36-11.9-2.5-2.8-4.6-6.3-5.7-9.9-1.6.8-2.5,3-3,4.7s-.5,2.9-.7,2.9c-1.8-1.2-2.9-3.3-3.6-5.2-4.9-13.5,2.7-26.8.5-40.1-1.1-7-4.3-14.1-9-19.3,6.4-.3,13-.2,19,2,2,.7,3.9,1.6,5.7,2.5-.3-5.1-.4-10.2,0-15.3-2.5-1-5-2-7.4-3.3-5.9-3.1-12.6-8.3-15.8-14.2-3.6-6.5-4.8-14.5-5.1-21.9v-.3c-.1,0-.1-4.9-.1-4.9Z"/>
    <path class="st0" d="M188.6,70.5c.2,1,.1,2,.1,3-.2,9.5-2.1,21.4-8.7,28.7-5.2,5.7-12.3,9.9-19.5,12.6-.4.3,0,.8,0,1.3,0,1.3.1,2.6.1,3.8,0,3.4-.2,6.8-.2,10.2,1.9-.8,3.7-1.8,5.7-2.5,6-2.1,12.6-2.3,18.9-2-4.5,4.9-7.4,11.3-8.8,17.8-2.6,12.2,3.4,24.2,1.5,36.5-.4,3-1.5,6.9-3.4,9.2-.2.2-1.4,1.5-1.6,1.3-.5-2.3-.8-4.7-2.3-6.6s-1.1-1.2-1.2-1c-2.7,8-9,14.4-16.6,17.9-7.8,3.5-16.7,4.7-25.2,3.9,0-.3,0-.2.2-.3,2.7-2.4,5.2-4.9,6.9-8.1,1.4-2.6,2.4-5.5,3.5-8.3,7.8-.8,16-3.5,20.1-10.6,3-5.1,3.5-11.4,2.5-17.2,2.2-3.7,4.3-7.6,5.2-11.8.7-3.3.7-6.7.4-10.1-2.8.9-5.2,2.6-7.4,4.5-1.9,9.7-5.2,18.9-12.5,25.8-7.8,7.5-18.1,12.3-28.2,15.9v-69.7c1.1-16.4,13.9-29.2,26.9-37.7.4,0,4.6,5.7,5.2,6.4,4.1,5.9,7.4,12.4,8.9,19.5,0,.3.2,1.6.4,1.6,2.6-.8,5.1-1.9,7.3-3.5,6.2-4.4,7.2-10.1,6.2-17.3-1.3-9.4-6.4-18.7-13.9-24.4.2-3.7,0-7.5-1-11.1-1.5-5.3-5.9-10.5-9.9-14.2s-3.5-2.6-3.9-3.7-.1-.3,0-.5c1.2-.2,2.1.1,3.2.5,6.6,2.1,16.5,7,21.2,12.2,2.3,2.5,4.1,5.5,5.8,8.5.4,5.6-.9,13.2,3.9,17.2,3,2.5,6.8,3.1,10.5,2Z"/>
    <path class="st0" d="M108.5,23.1c-.3,1.5-1,2-2,2.9-5.2,5.1-11.7,12.8-10.4,20.6,1,6,6.7,10.7,11.6,13.6,3.6-.9,6.9-1.3,10.6-.7.7.1,2.8.8,3.3.7s2-1.3,2.5-1.6c4.2-3,8.8-7.6,9.2-13,.4-6.4-4.3-13-8.5-17.4-.8-.9-2.9-2.6-3.4-3.3s-.5-1.2-.8-1.8c1.6-.5,2.7.4,4,1.1,5.7,3.1,12.1,8,16.3,12.9,4.4,5.1,6.8,11.6,6.6,18.4-6.5,0-12.4,4.3-14.5,10.4.9.6,6.9,5.6,6.8,6.1-3.8,2.6-7.5,5.3-10.9,8.3-5.9,5.3-10.6,11.9-14.1,18.9-.3,0-.2,0-.3-.2-.9-1.4-1.6-3.1-2.5-4.5-1.7-2.8-3.7-5.7-5.8-8.3-4.7-5.7-10.6-10.3-16.7-14.4-.1-.4,5.9-5.5,6.8-6.1-2-6.1-8.1-10.3-14.5-10.4,0-4.7,1-9.6,3.3-13.7,3.8-6.9,12.9-14.1,19.8-17.7,1.2-.6,2.3-1.4,3.8-1Z"/>
  </g>
</svg>