<svg xmlns="http://www.w3.org/2000/svg" id="Layer_1" viewBox="0 0 25 25"><defs><style>.cls-1{stroke-width:0}</style></defs><path d="M10.7 22.23c-.12.13-.24.26-.37.38-.07.06-.14.12-.22.17-.07.05-.15.06-.23.03-.24-.09-.48-.18-.72-.28-.59-.26-1.17-.53-1.75-.79-.07-.03-.15-.08-.22-.12a.35.35 0 0 1-.17-.19c-.03-.12-.07-.24-.08-.37-.01-.16 0-.31.01-.47 0-.05 0-.06-.05-.08-.75-.34-1.51-.68-2.26-1.03-.21-.1-.42-.19-.63-.29a.127.127 0 0 1-.07-.09c-.07-.51-.14-1.02-.22-1.53-.11-.69-.22-1.39-.35-2.08-.16-.86-.33-1.71-.5-2.56 0-.05-.03-.07-.07-.09-.22-.08-.43-.17-.65-.26a.31.31 0 0 1-.19-.25l-.21-1.19c-.07-.47-.13-.94-.19-1.41-.05-.37-.08-.74-.07-1.12 0-.11.04-.19.14-.24.51-.27 1.02-.54 1.53-.8.28-.15.56-.28.84-.42.05-.02.07-.05.06-.11-.02-.19-.01-.37.03-.56.03-.14.11-.22.25-.27.66-.23 1.32-.48 1.97-.72.02 0 .03-.01.07-.03-.03-.02-.05-.03-.07-.05-.38-.34-.71-.72-.98-1.15-.16-.26-.29-.54-.32-.85-.04-.42.1-.76.46-.99.28-.19.6-.28.93-.35.68-.14 1.38-.17 2.07-.15.17 0 .34.02.51.02.03 0 .07 0 .1-.02.47-.2.94-.4 1.44-.54.03 0 .06 0 .09-.02.2-.07.38-.03.55.09.33.23.59.52.84.82.54.68.87 1.47 1.11 2.3.01.05.03.1.04.13h.36c.45 0 .87.12 1.29.29.05.02.08.01.11-.02.47-.39.95-.77 1.46-1.1l.21-.12c.16-.1.33-.13.51-.14.74-.03 1.49-.07 2.23-.11.21 0 .41-.02.62-.03.03 0 .07 0 .1-.03.34-.19.7-.37 1.08-.49.29-.09.56-.07.84.06.39.19.69.46.87.86.12.27.11.55.04.83-.13.6-.47 1.05-.95 1.41-.29.22-.61.39-.96.51-.02 0-.03.01-.06.03.04.01.06.02.08.03.67.21 1.35.43 2 .71.15.06.3.15.44.22.08.04.11.1.11.2-.02.69-.03 1.39-.05 2.08-.02.48-.04.95-.07 1.43 0 .13-.03.26-.04.4 0 .06-.04.1-.09.14-.23.15-.47.3-.7.45-.04.03-.06.05-.07.1-.09.71-.19 1.43-.26 2.15-.07.67-.12 1.35-.17 2.02-.06.72-.1 1.44-.15 2.16 0 .05-.02.08-.06.1-.47.3-.93.6-1.4.9-.06.04-.08.08-.08.16.02.23.04.46 0 .69-.01.06-.04.11-.09.15-.22.15-.43.3-.65.45-.58.4-1.16.79-1.74 1.19-.09.06-.2.12-.3.17-.06.04-.13.04-.19 0-.18-.14-.36-.27-.53-.41-.04-.03-.07-.04-.11 0-.68.45-1.36.88-2.03 1.33-.29.19-.59.2-.91.16-.08-.01-.16-.06-.24-.09-.93-.43-1.87-.85-2.8-1.28-.02-.01-.05-.02-.07-.03h-.03ZM6.67 10.71c-.07.89 0 1.77.04 2.65-.03 0-.05-.02-.07-.02-1.21-.45-2.42-.91-3.62-1.36-.15-.06-.31-.12-.46-.17-.14-.04-.27.03-.32.16s0 .26.13.33c.03.02.07.03.11.05 1.4.53 2.81 1.06 4.21 1.59.05.02.07.05.07.1 0 .1.01.21.02.31.05.58.09 1.16.14 1.75l.15 1.71.15 1.57c.06.56.12 1.12.17 1.68 0 .09.05.16.12.21.09.06.17.13.26.18.55.31 1.13.55 1.74.72.13.04.26.05.4.07.09 0 .11-.02.1-.1-.01-.24-.03-.48-.05-.72-.04-.45-.07-.91-.11-1.36-.04-.44-.07-.89-.11-1.33-.04-.46-.08-.93-.11-1.39-.03-.41-.07-.82-.1-1.23-.04-.52-.08-1.03-.11-1.55-.03-.51-.06-1.02-.08-1.53-.01-.38 0-.76-.01-1.15 0-.15.06-.25.18-.33.23-.15.46-.32.7-.46.8-.46 1.6-.9 2.4-1.35.02-.01.05-.03.07-.04-.25-.21-.87-.57-1.2-.71-.43-.18-.88-.22-1.35-.23-.12 0-.23.02-.33.08-.06.04-.13.07-.2.1-.83.43-1.65.85-2.45 1.33-.02.01-.07.01-.09 0-1.38-.49-2.77-.99-4.15-1.48-.16-.06-.32-.12-.49-.16a.244.244 0 0 0-.3.16c-.05.12 0 .26.11.33l.12.06c1.18.42 2.35.84 3.53 1.26.27.1.53.19.8.29v-.02Zm11.02 11.11.65-.34c.6-.32 1.15-.71 1.61-1.21.02-.02.04-.07.04-.1 0-.26-.02-.51-.03-.77-.05-1.08-.09-2.15-.14-3.23l-.12-2.56c0-.06.01-.09.07-.12 1.05-.56 2.09-1.12 3.14-1.68.04-.02.08-.05.12-.08.09-.08.11-.22.06-.32a.263.263 0 0 0-.3-.13c-.05.01-.09.03-.14.06-.97.52-1.94 1.04-2.92 1.56-.02.01-.04.02-.07.03-.02-.39-.04-.76-.07-1.14-.02-.38-.05-.77-.08-1.15-.01-.13 0-.27-.1-.38l.06-.03c1.14-.6 2.28-1.19 3.41-1.79.05-.03.1-.05.14-.08.11-.08.14-.22.08-.33-.06-.12-.19-.17-.32-.14-.04.01-.08.03-.12.05-1.18.62-2.36 1.23-3.54 1.85-.07.04-.14.1-.2.1-.07 0-.13-.07-.2-.1 0 0-.02-.01-.03-.02-.87-.5-1.79-.92-2.7-1.32a.292.292 0 0 0-.09-.02c-.22.02-.45.02-.67.05-.58.08-1.09.3-1.5.73l-.3.33c.03.01.05.02.07.03.78.32 1.55.66 2.3 1.04.36.19.71.38 1.03.64.17.13.26.29.27.51.04.5.09 1 .12 1.5.06.89.11 1.79.16 2.68.04.74.08 1.48.11 2.22.05 1.04.1 2.08.14 3.12 0 .17.02.35.03.54h.03ZM13.36 8.35s.05-.02.07-.03c1.31-.55 2.65-1.01 4.03-1.37.73-.19 1.47-.34 2.2-.51.52-.12 1.04-.26 1.53-.48.31-.14.6-.3.83-.55.29-.3.45-.64.38-1.07-.04-.22-.1-.44-.23-.62s-.29-.26-.51-.23c-.09 0-.18.02-.26.04-.4.11-.81.23-1.21.35-.22.06-.43.13-.66.14-.61.02-1.21.05-1.82.07-.32.01-.63.09-.91.25A11.45 11.45 0 0 0 14 6.53c-.32.33-.52.73-.6 1.18-.04.21-.06.42-.03.63Zm-2.85-1.38s.01-.04.02-.05c.04-.13.07-.26.12-.39.2-.52.51-.95.98-1.25.28-.17.56-.32.86-.44.02 0 .04-.02.07-.03-.19-.33-.36-.66-.55-.98-.27-.46-.55-.91-.9-1.32-.13-.15-.26-.3-.44-.4a.388.388 0 0 0-.3-.04c-.93.31-1.9.46-2.87.51-.32.02-.64.05-.96.09-.23.03-.45.11-.64.26-.15.12-.2.27-.18.45.02.2.1.37.19.54.2.36.5.62.84.84 1.03.65 2.09 1.25 3.14 1.86.2.12.4.23.61.35Zm5.97 4.81c-.08-.17-.21-.27-.37-.36a.127.127 0 0 0-.12 0c-.75.39-1.5.78-2.25 1.18-.05.03-.09.03-.15 0-.96-.35-1.93-.69-2.89-1.04-.09-.03-.18-.09-.27-.08-.09 0-.17.09-.25.14l-.33.21c.03.01.05.02.07.03.54.19 1.08.39 1.62.58.59.21 1.18.42 1.78.63.04.02.06.03.06.08 0 .08 0 .17.01.25.02.39.05.78.07 1.17l.06.97c0 .12.01.24.02.38-1.2-.45-2.39-.9-3.58-1.35v.02c.01.18.03.35.04.53 0 .02.03.04.05.05 1.22.46 2.43.92 3.65 1.37.12.04.22.03.33-.03.87-.47 1.74-.94 2.62-1.4.12-.06.17-.13.15-.27-.02-.13-.01-.27-.02-.42-.9.48-1.79.96-2.69 1.44v-.08l-.03-.5-.06-.93c-.02-.4-.05-.8-.08-1.2 0-.05.02-.08.06-.1.6-.31 1.2-.63 1.81-.94.23-.12.45-.24.69-.36v.03Zm-3.51-2.94s-.03-.05-.04-.07c-.3-.51-.38-1.05-.16-1.6.18-.47.47-.87.84-1.21.11-.1.24-.19.36-.29-.05-.03-.1-.07-.15-.1-.24-.13-.5-.14-.77-.11-.33.04-.64.16-.94.3-.98.48-1.34 1.41-1.29 2.3 0 .06.02.1.09.12.66.21 1.32.43 1.98.65.02 0 .05.01.08.02ZM5.11 6.61c.11.04.22.07.32.11 1.49.49 2.97.98 4.46 1.46.04.01.07.01.11-.01.11-.07.22-.13.33-.2l.09-.06c-.15-.12-.29-.24-.43-.36-.85-.7-1.79-1.24-2.82-1.63a.292.292 0 0 0-.09-.02c-.08 0-.16.02-.24.04-.6.11-1.16.35-1.7.64 0 0-.02.01-.03.02Zm9.2 13.51c0-.08 0-.16-.01-.23l-.06-2.08c0-.15 0-.3-.02-.45-.02-.13-.13-.22-.26-.22s-.23.09-.26.22v.1c0 .15 0 .31.01.46.02.81.05 1.63.07 2.44l.06 2.08c0 .15 0 .29.02.44.02.13.13.22.25.22s.23-.08.26-.2c.01-.04.01-.09.01-.14-.03-.88-.05-1.76-.08-2.64h.01Z" class="cls-1"/><path d="M14.13 7.48c.23-.25.45-.5.69-.74.45-.47.95-.88 1.5-1.24.26-.17.55-.31.86-.35.37-.05.72.01 1.06.16.01 0 .03.01.04.02.08.05.09.07.07.16-.06.19-.14.37-.28.52-.05.06-.11.1-.19.11-.38.09-.76.17-1.14.27-.75.19-1.45.5-2.13.85-.15.08-.31.16-.46.24 0 0 0-.01-.01-.02v.02ZM10.02 5.97c-.25-.18-.5-.37-.75-.55-.38-.26-.76-.53-1.16-.77-.24-.14-.51-.23-.77-.35-.25-.12-.42-.31-.47-.58-.01-.06 0-.13 0-.2s.06-.1.13-.12c.13-.03.26 0 .39.02.38.1.7.29.99.54.48.42.88.92 1.26 1.43.12.17.24.34.35.51.01.02.02.03.03.05v.02Z" class="cls-1"/></svg>